<svg width="40" height="40" viewBox="0 0 40 40" fill="none" xmlns="http://www.w3.org/2000/svg">
<path d="M30 20C29.9918 19.1231 29.6386 18.2848 29.0166 17.6666L21.8666 10.5C21.5544 10.1896 21.1319 10.0153 20.6916 10.0153C20.2513 10.0153 19.8289 10.1896 19.5166 10.5C19.3604 10.6549 19.2364 10.8392 19.1518 11.0423C19.0672 11.2454 19.0236 11.4633 19.0236 11.6833C19.0236 11.9033 19.0672 12.1212 19.1518 12.3243C19.2364 12.5274 19.3604 12.7117 19.5166 12.8666L25 18.3333H8.33329C7.89127 18.3333 7.46734 18.5089 7.15478 18.8215C6.84222 19.134 6.66663 19.5579 6.66663 20C6.66663 20.442 6.84222 20.8659 7.15478 21.1785C7.46734 21.491 7.89127 21.6666 8.33329 21.6666H25L19.5166 27.15C19.2028 27.4616 19.0256 27.8851 19.024 28.3274C19.0225 28.7697 19.1967 29.1945 19.5083 29.5083C19.8199 29.8221 20.2435 29.9993 20.6857 30.0009C21.128 30.0025 21.5528 29.8283 21.8666 29.5166L29.0166 22.35C29.6426 21.7277 29.9962 20.8826 30 20Z" fill="#523506"/>
</svg>
