<svg width="35" height="35" color="#FFFF" viewBox="0 0 35 35" fill="none" xmlns="http://www.w3.org/2000/svg">
<g clip-path="url(#clip0_16_283)">
<path d="M33.7181 13.2256L22.6567 2.16273C21.2877 0.797711 19.4333 0.031189 17.5 0.031189C15.5668 0.031189 13.7124 0.797711 12.3434 2.16273L1.28189 13.2256C0.87418 13.6307 0.550932 14.1127 0.330888 14.6437C0.110844 15.1747 -0.00161933 15.744 1.76159e-05 16.3188V30.6352C1.76159e-05 31.7956 0.460954 32.9083 1.28143 33.7288C2.1019 34.5493 3.2147 35.0102 4.37502 35.0102H30.625C31.7853 35.0102 32.8981 34.5493 33.7186 33.7288C34.5391 32.9083 35 31.7956 35 30.6352V16.3188C35.0017 15.744 34.8892 15.1747 34.6691 14.6437C34.4491 14.1127 34.1259 13.6307 33.7181 13.2256ZM21.875 32.0936H13.125V26.3565C13.125 25.1962 13.586 24.0834 14.4064 23.2629C15.2269 22.4424 16.3397 21.9815 17.5 21.9815C18.6603 21.9815 19.7731 22.4424 20.5936 23.2629C21.4141 24.0834 21.875 25.1962 21.875 26.3565V32.0936ZM32.0834 30.6352C32.0834 31.022 31.9297 31.3929 31.6562 31.6664C31.3827 31.9399 31.0118 32.0936 30.625 32.0936H24.7917V26.3565C24.7917 24.4226 24.0235 22.5679 22.656 21.2005C21.2886 19.833 19.4339 19.0648 17.5 19.0648C15.5661 19.0648 13.7115 19.833 12.344 21.2005C10.9766 22.5679 10.2084 24.4226 10.2084 26.3565V32.0936H4.37502C3.98824 32.0936 3.61731 31.9399 3.34382 31.6664C3.07033 31.3929 2.91668 31.022 2.91668 30.6352V16.3188C2.91804 15.9323 3.07154 15.5619 3.34398 15.2877L14.4054 4.22919C15.2275 3.41096 16.3402 2.9516 17.5 2.9516C18.6599 2.9516 19.7725 3.41096 20.5946 4.22919L31.6561 15.2921C31.9274 15.5652 32.0809 15.9338 32.0834 16.3188V30.6352Z" fill="#523506"/>
</g>
<defs>
<clipPath id="clip0_16_283">
<rect width="35" height="35" fill="white"/>
</clipPath>
</defs>
</svg>
