<svg width="35" height="35" viewBox="0 0 35 35" fill="none" xmlns="http://www.w3.org/2000/svg">
<g clip-path="url(#clip0_16_291)">
<path d="M34.5728 32.5107L25.868 23.8059C28.2401 20.9047 29.4064 17.2027 29.1257 13.4657C28.8449 9.72864 27.1385 6.24249 24.3594 3.72831C21.5804 1.21413 17.9413 -0.135734 14.1949 -0.0420625C10.4486 0.0516089 6.88149 1.58164 4.23157 4.23157C1.58164 6.88149 0.0516089 10.4486 -0.0420625 14.1949C-0.135734 17.9413 1.21413 21.5804 3.72831 24.3594C6.24249 27.1385 9.72864 28.8449 13.4657 29.1257C17.2027 29.4064 20.9047 28.2401 23.8059 25.868L32.5107 34.5728C32.7857 34.8384 33.1541 34.9854 33.5365 34.9821C33.9188 34.9788 34.2846 34.8254 34.555 34.555C34.8254 34.2846 34.9788 33.9188 34.9821 33.5365C34.9854 33.1541 34.8384 32.7857 34.5728 32.5107ZM14.5834 26.25C12.2759 26.25 10.0203 25.5658 8.10173 24.2839C6.18315 23.0019 4.68781 21.1798 3.80479 19.048C2.92176 16.9162 2.69073 14.5704 3.14089 12.3073C3.59105 10.0442 4.70219 7.96541 6.3338 6.3338C7.96541 4.70219 10.0442 3.59105 12.3073 3.14089C14.5704 2.69073 16.9162 2.92176 19.048 3.80479C21.1798 4.68781 23.0019 6.18315 24.2839 8.10173C25.5658 10.0203 26.25 12.2759 26.25 14.5834C26.2466 17.6765 25.0163 20.642 22.8291 22.8291C20.642 25.0163 17.6765 26.2466 14.5834 26.25Z" fill="#523506"/>
</g>
<defs>
<clipPath id="clip0_16_291">
<rect width="35" height="35" fill="white"/>
</clipPath>
</defs>
</svg>
