<svg width="35" height="35" viewBox="0 0 35 35" color="#FFF" fill="none" xmlns="http://www.w3.org/2000/svg">
<g clip-path="url(#clip0_16_289)">
<path d="M30.625 8.75H26.25C26.25 6.42936 25.3281 4.20376 23.6872 2.56282C22.0462 0.921872 19.8206 0 17.5 0C15.1794 0 12.9538 0.921872 11.3128 2.56282C9.67187 4.20376 8.75 6.42936 8.75 8.75H4.375C3.21468 8.75 2.10188 9.21094 1.28141 10.0314C0.460936 10.8519 0 11.9647 0 13.125L0 27.7083C0.00231563 29.6415 0.771286 31.4948 2.13824 32.8618C3.50519 34.2287 5.35851 34.9977 7.29167 35H27.7083C29.6415 34.9977 31.4948 34.2287 32.8618 32.8618C34.2287 31.4948 34.9977 29.6415 35 27.7083V13.125C35 11.9647 34.5391 10.8519 33.7186 10.0314C32.8981 9.21094 31.7853 8.75 30.625 8.75ZM17.5 2.91667C19.0471 2.91667 20.5308 3.53125 21.6248 4.62521C22.7188 5.71917 23.3333 7.2029 23.3333 8.75H11.6667C11.6667 7.2029 12.2812 5.71917 13.3752 4.62521C14.4692 3.53125 15.9529 2.91667 17.5 2.91667ZM32.0833 27.7083C32.0833 28.8687 31.6224 29.9815 30.8019 30.8019C29.9815 31.6224 28.8687 32.0833 27.7083 32.0833H7.29167C6.13134 32.0833 5.01855 31.6224 4.19807 30.8019C3.3776 29.9815 2.91667 28.8687 2.91667 27.7083V13.125C2.91667 12.7382 3.07031 12.3673 3.3438 12.0938C3.61729 11.8203 3.98823 11.6667 4.375 11.6667H8.75V14.5833C8.75 14.9701 8.90365 15.341 9.17714 15.6145C9.45063 15.888 9.82156 16.0417 10.2083 16.0417C10.5951 16.0417 10.966 15.888 11.2395 15.6145C11.513 15.341 11.6667 14.9701 11.6667 14.5833V11.6667H23.3333V14.5833C23.3333 14.9701 23.487 15.341 23.7605 15.6145C24.034 15.888 24.4049 16.0417 24.7917 16.0417C25.1784 16.0417 25.5494 15.888 25.8229 15.6145C26.0964 15.341 26.25 14.9701 26.25 14.5833V11.6667H30.625C31.0118 11.6667 31.3827 11.8203 31.6562 12.0938C31.9297 12.3673 32.0833 12.7382 32.0833 13.125V27.7083Z" fill="#523506"/>
</g>
<defs>
<clipPath id="clip0_16_289">
<rect width="35" height="35" fill="white"/>
</clipPath>
</defs>
</svg>
