<svg width="35" height="35" viewBox="0 0 35 35" fill="none" xmlns="http://www.w3.org/2000/svg">
<g clip-path="url(#clip0_16_285)">
<path d="M30.625 35H27.7083V27.6456C27.7072 26.5023 27.2525 25.4061 26.444 24.5977C25.6356 23.7892 24.5394 23.3345 23.396 23.3334H11.604C10.4606 23.3345 9.36445 23.7892 8.55599 24.5977C7.74753 25.4061 7.29282 26.5023 7.29167 27.6456V35H4.375V27.6456C4.37732 25.7291 5.13968 23.8917 6.49487 22.5366C7.85006 21.1814 9.68743 20.419 11.604 20.4167H23.396C25.3126 20.419 27.1499 21.1814 28.5051 22.5366C29.8603 23.8917 30.6227 25.7291 30.625 27.6456V35Z" fill="#523506"/>
<path d="M17.5 17.5C15.7694 17.5 14.0777 16.9868 12.6388 16.0254C11.1998 15.0639 10.0783 13.6973 9.41606 12.0985C8.75379 10.4996 8.58051 8.7403 8.91813 7.04296C9.25575 5.34563 10.0891 3.78653 11.3128 2.56282C12.5365 1.33911 14.0956 0.505753 15.793 0.168133C17.4903 -0.169488 19.2496 0.00379125 20.8485 0.666058C22.4473 1.32832 23.8139 2.44983 24.7754 3.88876C25.7368 5.32769 26.25 7.01942 26.25 8.75C26.2477 11.0699 25.3251 13.2942 23.6846 14.9346C22.0442 16.5751 19.8199 17.4977 17.5 17.5ZM17.5 2.91667C16.3463 2.91667 15.2185 3.25879 14.2592 3.89976C13.2999 4.54074 12.5522 5.45178 12.1107 6.51768C11.6692 7.58359 11.5537 8.75647 11.7788 9.88803C12.0038 11.0196 12.5594 12.059 13.3752 12.8748C14.191 13.6906 15.2304 14.2462 16.362 14.4713C17.4935 14.6963 18.6664 14.5808 19.7323 14.1393C20.7982 13.6978 21.7093 12.9501 22.3502 11.9908C22.9912 11.0315 23.3333 9.90373 23.3333 8.75C23.3333 7.20291 22.7188 5.71918 21.6248 4.62521C20.5308 3.53125 19.0471 2.91667 17.5 2.91667Z" fill="#523506"/>
</g>
<defs>
<clipPath id="clip0_16_285">
<rect width="35" height="35" fill="white"/>
</clipPath>
</defs>
</svg>
